<svg width="19" height="17" viewBox="0 0 19 17" fill="none" xmlns="http://www.w3.org/2000/svg">
<path d="M18.7887 0.467862L18.3781 3.64946C17.3746 3.58104 16.5992 3.7635 16.0518 4.19683C15.5044 4.63017 15.1395 5.23456 14.9571 6.01C14.7746 6.78545 14.7404 7.66353 14.8544 8.64424H18.7887V16.889H11.2281V7.96002C11.2281 5.26877 11.8667 3.23893 13.1439 1.8705C14.4439 0.479266 16.3255 0.0117183 18.7887 0.467862ZM8.25174 0.467862L7.84121 3.64946C6.8377 3.58104 6.06225 3.7635 5.51488 4.19683C4.96751 4.63017 4.60259 5.23456 4.42014 6.01C4.23768 6.78545 4.20347 7.66353 4.3175 8.64424H8.25174V16.889H0.691162V7.96002C0.691162 5.26877 1.32976 3.23893 2.60697 1.8705C3.90697 0.479266 5.78857 0.0117183 8.25174 0.467862Z" fill="white"/>
</svg>
