<svg width="12" height="22" viewBox="0 0 12 22" fill="none" xmlns="http://www.w3.org/2000/svg">
<path fill-rule="evenodd" clip-rule="evenodd" d="M8.76018 0.050415C7.82989 2.3397 6.30894 4.09178 5.42255 6.16485C4.52663 8.2603 3.44184 10.2804 2.87936 12.517C3.69492 10.724 4.50592 8.9284 5.32687 7.1374C6.26959 5.08255 7.46498 3.17349 8.64007 1.24663C9.22989 0.279882 9.8922 0.329172 10.5562 0.861421C11.2044 1.38166 11.339 2.25769 10.7285 2.86823C9.48462 4.11207 8.78504 5.70136 8.33066 7.26249C7.53953 9.9813 6.14865 12.5013 5.72947 15.3407C5.63296 15.9951 5.15953 16.553 5.0622 17.282C4.95285 18.1021 4.91018 18.8046 5.31693 19.5688C5.55261 20.0128 6.13415 20.5969 5.61764 21.0922C5.19515 21.4978 4.57634 21.7951 3.8722 21.4257C3.60338 21.2849 3.21154 21.3772 2.87563 21.3656C0.911485 21.2993 -0.247864 20.0195 0.0449764 18.0383C0.437639 15.3817 1.43545 12.8969 2.48918 10.4431C3.86971 7.22769 5.37078 4.07438 7.41403 1.21059C7.71557 0.788107 7.96823 0.321303 8.76018 0.050415Z" fill="black"/>
</svg>
