<svg width="10" height="14" viewBox="0 0 10 14" fill="none" xmlns="http://www.w3.org/2000/svg">
<path fill-rule="evenodd" clip-rule="evenodd" d="M7.01241 0.729492C6.86423 1.23513 6.77496 1.53925 6.63901 2.00303C6.86498 1.82819 7.00278 1.77522 7.04426 1.68002C7.38136 0.909522 8.00072 1.10881 8.48857 1.35811C9.01088 1.62482 9.14646 2.22715 8.93754 2.74649C8.59674 3.59404 8.2026 4.43343 7.72178 5.20874C7.05834 6.27855 6.30785 7.31242 5.85592 8.48076C5.38362 9.70096 4.69499 10.8882 4.98948 12.3229C5.12877 13 4.56312 13.3979 3.9445 13.1208C3.60852 12.9696 3.30624 12.9867 2.97397 13.0034C0.868438 13.1086 -0.218777 11.6153 0.599135 9.60502C1.75229 6.77159 3.61333 4.37639 5.55143 2.04675C5.92186 1.60149 6.17709 1.00917 7.01241 0.729492Z" fill="black"/>
</svg>
