<svg width="11" height="15" viewBox="0 0 11 15" fill="none" xmlns="http://www.w3.org/2000/svg">
<path fill-rule="evenodd" clip-rule="evenodd" d="M8.13329 0.740845C7.96761 1.30623 7.86779 1.64629 7.71578 2.16487C7.96844 1.96937 8.12252 1.91013 8.16891 1.80368C8.54583 0.942146 9.23838 1.16499 9.78388 1.44374C10.3679 1.74197 10.5195 2.41546 10.2859 2.99617C9.90483 3.94386 9.46412 4.88244 8.92649 5.74937C8.18465 6.94558 7.34548 8.10161 6.84015 9.408C6.31205 10.7724 5.54205 12.0999 5.87134 13.7041C6.02708 14.4613 5.39459 14.9061 4.70288 14.5963C4.3272 14.4273 3.98921 14.4463 3.61767 14.465C1.26335 14.5826 0.0476691 12.913 0.962225 10.6651C2.25163 7.49688 4.33258 4.81866 6.49968 2.21374C6.91388 1.71587 7.19927 1.05357 8.13329 0.740845Z" fill="black"/>
</svg>
