<svg width="15" height="24" viewBox="0 0 15 24" fill="none" xmlns="http://www.w3.org/2000/svg">
<path fill-rule="evenodd" clip-rule="evenodd" d="M11.993 9.19467C11.9404 8.29419 11.7353 7.25538 10.7798 6.79851C9.9025 6.37893 9.20996 7.14769 8.65079 7.72591C6.34907 10.1047 4.91801 12.9734 4.11818 16.1636C3.91025 16.9916 4.42593 17.3975 5.15079 17.6415C5.8367 17.8726 6.28611 17.7488 6.5657 17.0111C6.74463 16.5393 6.99812 15.9681 7.66002 16.0617C8.23659 16.1433 8.11937 16.7489 8.28463 17.132C8.36872 17.3263 8.30079 17.622 8.58534 17.6688C8.83759 17.7102 9.0157 17.4944 9.11138 17.3093C10.4232 14.7719 11.7126 12.2241 11.993 9.19467ZM0.398657 17.82C0.588776 13.7575 2.12588 10.0893 3.79386 6.46342C4.78298 4.31413 6.03593 2.40922 8.2225 1.23538C10.1465 0.20236 11.9333 0.550703 12.9995 2.50325C14.6766 5.57579 15.3343 8.83348 14.298 12.283C13.3938 15.2934 12.0124 18.0511 9.92321 20.4328C9.60345 20.7969 9.1967 21.1701 8.79783 21.0595C7.93049 20.8192 7.59954 21.4351 7.29469 21.9169C6.46919 23.2237 5.26925 23.5364 3.88996 23.2999C2.36611 23.0385 1.1438 22.3008 0.623568 20.7206C0.311674 19.7738 0.258657 18.807 0.398657 17.82Z" fill="black"/>
</svg>
