<svg width="12" height="12" viewBox="0 0 12 12" fill="none" xmlns="http://www.w3.org/2000/svg">
<path fill-rule="evenodd" clip-rule="evenodd" d="M2.29428 9.34271C3.42039 7.6002 4.55502 5.85991 5.80819 4.1989C4.37869 5.27093 2.65545 7.75874 2.29428 9.34271ZM4.49763 11.9879C4.1472 12.0902 5.04068 10.8722 4.08571 11.6201C4.06015 11.6401 4.00977 11.6708 3.99829 11.662C3.36893 11.1734 2.81476 11.2008 2.23874 11.7979C2.08761 11.9546 0.914823 10.6403 0.889633 10.2521C0.851849 9.66607 1.00002 9.11117 1.25784 8.59812C2.71289 5.70061 4.7599 3.29318 7.34625 1.34508C8.61312 0.390478 9.94223 0.494569 11.2687 1.20543C11.9811 1.58734 11.9777 2.04631 11.3854 2.61788C10.762 3.21909 10.1689 3.8566 9.61069 4.51893C8.96651 5.28313 8.42716 6.12216 7.71816 6.84931C6.7869 7.80391 6.4661 9.15784 5.78895 10.2914C5.41445 10.917 5.08476 11.5519 4.49763 11.9879Z" fill="black"/>
</svg>
