<svg width="10" height="12" viewBox="0 0 10 12" fill="none" xmlns="http://www.w3.org/2000/svg">
<path fill-rule="evenodd" clip-rule="evenodd" d="M7.35873 3.38688C7.14092 3.23241 7.01868 3.20277 6.92348 3.43429C6.57675 4.27776 6.28782 5.1568 5.83515 5.94026C5.5614 6.41367 5.6203 7.39012 4.57198 7.10526C4.40529 7.06007 4.43937 7.2701 4.51493 7.38901C4.69163 7.66684 4.58198 7.87057 4.39047 8.10431C4.06375 8.50253 3.97373 8.94445 4.05856 9.49047C4.216 10.4988 3.5144 10.9903 2.59203 10.5766C2.48127 10.5266 2.28457 10.3584 2.27457 10.428C2.03897 12.0713 1.14846 9.89239 0.785064 10.6884C0.512427 10.4617 0.384258 10.1732 0.353142 9.81682C0.282019 9.00002 0.616148 8.30916 0.995099 7.6309C2.43089 5.06122 4.48752 3.01015 6.59676 1.01389C7.10462 0.532705 7.86993 0.506775 8.52818 0.313039C8.91454 0.199317 9.14236 0.519369 9.28868 0.825345C9.48908 1.24467 9.26831 1.28838 8.92529 1.17651C8.87972 1.92886 8.38779 2.44969 7.98402 3.02089C7.80621 3.27241 7.69101 3.57654 7.35873 3.38688Z" fill="black"/>
</svg>
