<svg width="14" height="24" viewBox="0 0 14 24" fill="none" xmlns="http://www.w3.org/2000/svg">
<path fill-rule="evenodd" clip-rule="evenodd" d="M6.88767 11.344C6.79488 11.2752 6.70252 11.2065 6.61015 11.1377C6.07749 11.9815 5.53985 12.8219 5.02003 13.6735C4.95956 13.7729 4.8411 13.9522 5.02086 14.0607C5.14595 14.1361 5.36051 14.1577 5.40317 13.9994C5.67364 12.9909 6.62009 12.3493 6.88767 11.344ZM2.96228 21.5855C2.63299 22.0615 2.86784 22.8749 1.83027 22.9404C1.08015 22.988 1.21559 22.6256 1.21518 22.2396C0.570269 22.2975 0.828316 23.0638 0.257133 23.2158C0.0218667 22.1791 0.404174 21.1867 0.357784 20.1905C0.364825 20.1611 0.369381 20.1288 0.372281 20.094C1.17335 19.4064 1.35808 18.3775 1.8021 17.4936C1.98518 17.1283 2.04938 16.6926 2.27429 16.3616C4.08435 13.6987 5.55725 10.8233 7.5069 8.24329C9.03488 6.22116 10.3881 4.06814 12.02 2.12015C12.3953 1.6724 12.7271 1.18157 13.5323 0.71228C12.911 1.83725 12.438 2.69299 11.9654 3.54873C11.977 3.51477 11.9873 3.47997 11.9964 3.44394C10.7509 4.43015 10.2435 5.95275 9.17696 7.08932C9.54145 7.3979 9.6508 7.07607 9.82601 7.03962C10.1259 6.9779 10.311 7.16595 10.427 7.424C10.4842 7.55033 10.5981 7.73672 10.3964 7.78849C9.50169 8.01837 9.71624 8.76062 9.69015 9.3492C9.66116 9.99991 9.30743 10.3574 8.79879 10.6481C8.01512 11.0959 7.54914 11.7309 7.63323 12.679C7.49571 12.8823 7.35861 13.0861 7.2211 13.2895C6.36453 13.7095 5.13932 15.7552 5.2263 16.6197C4.73755 16.6449 4.54453 17.5711 3.87932 17.0633C3.68216 16.5157 3.57033 16.2564 3.05838 16.9382C2.41139 17.7989 2.51536 18.9711 1.735 19.7403C1.61903 19.8542 1.6269 20.0223 1.78595 20.1197C1.99264 20.2464 2.18441 20.1536 2.21589 19.9507C2.35341 19.0734 3.05382 18.4567 3.26589 17.622C3.35577 17.27 3.45062 16.9618 3.9108 17.0314C4.19039 18.6571 2.93867 19.7676 2.50956 21.1556C2.45281 21.3395 1.76317 20.8441 2.01335 21.4629C2.13512 21.7649 2.59447 21.9148 2.96228 21.5855Z" fill="black"/>
</svg>
