<svg width="13" height="24" viewBox="0 0 13 24" fill="none" xmlns="http://www.w3.org/2000/svg">
<path fill-rule="evenodd" clip-rule="evenodd" d="M12.788 2.70563C12.5613 3.41204 12.3423 4.15142 12.0875 4.87858C10.4735 9.48822 8.37984 13.8819 6.11206 18.1996C5.24266 19.8547 4.24064 21.4431 3.58276 23.2094C3.39458 23.7154 3.05638 24.1147 2.45294 23.5765C2.3107 23.4494 2.09955 23.392 1.91137 23.3253C0.659686 22.8823 0.170717 21.9228 0.563374 20.6208C0.965662 19.285 1.70986 18.1152 2.43109 16.9424C5.4827 11.982 8.35317 6.92817 10.5443 1.51543C10.8221 0.829395 10.9025 0.830136 11.3896 1.35244C11.4426 1.40912 11.55 1.45024 11.627 1.4432C12.5357 1.36207 12.6183 2.02811 12.788 2.70563Z" fill="black"/>
</svg>
