<svg width="14" height="26" viewBox="0 0 14 26" fill="none" xmlns="http://www.w3.org/2000/svg">
<path fill-rule="evenodd" clip-rule="evenodd" d="M13.9749 2.16077C13.7214 2.95065 13.4766 3.7774 13.1916 4.59048C11.3869 9.7448 9.04587 14.6576 6.51013 19.4856C5.538 21.3362 4.41759 23.1123 3.68197 25.0872C3.47155 25.653 3.09339 26.0995 2.41865 25.4977C2.2596 25.3556 2.02351 25.2914 1.81309 25.2169C0.413507 24.7215 -0.133238 23.6487 0.305815 22.1928C0.755637 20.6992 1.58777 19.3911 2.39422 18.0798C5.80641 12.5332 9.01605 6.88225 11.4661 0.829945C11.7767 0.0628445 11.8666 0.0636729 12.4113 0.647697C12.4705 0.711069 12.5906 0.757046 12.6768 0.749176C13.6928 0.658466 13.7852 1.4032 13.9749 2.16077Z" fill="black"/>
</svg>
