<svg width="36" height="113" viewBox="0 0 36 113" fill="none" xmlns="http://www.w3.org/2000/svg">
<path fill-rule="evenodd" clip-rule="evenodd" d="M34.6331 71.8114C34.7457 71.8706 34.8588 71.9303 34.9715 71.9895C35.3335 71.029 36.3623 70.3459 35.8889 69.0342C35.4702 69.9599 35.0518 70.8856 34.6331 71.8114ZM13.0623 35.6885C10.7134 36.1296 8.3044 38.3414 8.54919 39.84C9.68659 37.9827 11.3351 36.7927 13.0623 35.6885ZM32.966 21.4915C32.8972 21.4 32.828 21.3089 32.7593 21.2182C29.6296 23.9308 26.4994 26.6438 23.3702 29.3568C23.4364 29.4343 23.5031 29.5117 23.5698 29.5896L32.966 21.4915ZM42.0013 12.86C44.9434 10.6875 47.9671 8.64095 51.2169 6.93859C54.5019 5.21758 57.8251 3.58107 61.195 2.05474C54.3483 4.85101 47.5827 7.79806 42.0013 12.86ZM20.8613 100.71C21.6529 99.4196 22.6134 98.2818 23.2591 96.871C24.7209 93.6792 26.4174 90.5934 27.8083 87.3618C29.8814 82.5471 32.063 77.7834 34.6207 73.2015C34.7806 72.9144 34.9293 72.6257 34.5047 72.2094C29.4175 81.5319 25.8007 91.4404 20.8613 100.71ZM42.2983 17.8335C40.972 18.4271 40.3163 19.7099 39.3645 20.6886C38.1144 21.4151 37.4231 22.7236 36.3106 23.6013C34.3924 25.1144 32.4233 26.579 30.629 28.2308C26.9157 31.6501 22.8155 34.4426 18.2688 36.6403C16.581 37.4567 14.6118 37.6311 13.1696 39.0427C12.2873 39.9059 11.215 40.6038 11.1355 41.9558C11.0174 43.9589 11.3305 45.8944 12.2956 47.695C14.08 51.0235 16.4836 53.9332 18.5844 57.0476C20.7677 60.2842 22.7186 63.5775 23.2156 67.6081C23.6903 71.4635 23.4045 75.2849 23.1779 79.113C23.132 79.8883 22.6072 80.6277 22.5786 81.5257C22.5392 82.7799 22.5264 84.1741 21.7299 85.2017C20.293 87.0565 19.8167 89.3189 18.876 91.3774C18.5679 92.0526 18.7568 93.0475 18.164 93.564C17.3729 94.2537 17.16 95.1616 16.7814 96.0285C16.634 96.3669 16.4289 96.707 16.1692 96.965C15.3123 97.817 14.7726 98.942 14.1757 99.9141C13.0039 101.823 11.6996 103.513 10.0536 105.011C9.5793 105.443 8.83001 105.39 8.54504 106.064C8.26007 106.736 7.7361 107.233 7.18687 107.697C6.62604 108.17 6.33942 108.79 6.11658 109.514C6.52788 109.632 6.79338 109.464 7.06427 109.365C8.76829 108.741 10.2255 107.64 11.8711 106.891C14.7576 105.578 17.1927 103.673 19.1208 101.127C20.5635 99.2216 21.5427 97.0657 22.5753 94.9392C24.6214 90.7247 26.7007 86.5234 28.6197 82.2505C29.6946 79.8569 30.8125 77.4876 32.0021 75.154C33.9786 71.2771 35.7398 67.3008 37.4563 63.3091C38.831 60.1123 39.9688 56.8165 40.7136 53.3993C41.363 50.4159 42.4955 47.5881 43.6026 44.7554C45.7105 39.3617 47.8548 33.9895 51.3299 29.2725C54.4522 25.0344 57.6146 20.8249 60.4362 16.3722C62.542 13.0487 64.3698 9.60875 65.267 5.74467C65.3631 5.33005 65.6704 4.78621 65.3179 4.48135C65.0193 4.22289 64.5322 4.56254 64.1549 4.71165C60.1984 6.27733 56.3898 8.14165 52.7047 10.2744C52.0391 10.6596 51.4476 11.5306 50.4291 11.1048C50.2853 11.0448 49.985 11.2465 50.0724 11.4192C50.381 12.0298 49.7821 12.0223 49.5526 12.1739C48.1033 13.1319 46.6727 14.1132 45.259 15.1243C44.1531 15.915 43.3847 17.042 42.2983 17.8335ZM13.0947 95.9511C13.414 95.9287 13.5055 95.6698 13.6228 95.4399C15.1056 92.5298 16.2053 89.4506 17.5519 86.4816C18.1976 85.0563 17.9768 83.3465 19.0616 82.079C19.2472 81.862 19.1888 81.6483 18.9299 81.5373C18.5903 81.3915 18.4076 81.618 18.3695 81.8956C18.222 82.9779 17.7051 83.9272 17.346 84.935C16.4207 87.5308 15.6279 90.1638 14.3899 92.6532C13.8754 93.6883 13.3051 94.778 13.1207 95.9759C12.2058 97.1883 11.5526 98.5382 11.0419 99.9622C11.6826 98.6032 12.9116 97.5457 13.0947 95.9511ZM53.2825 32.8601C53.6843 33.5402 53.548 33.9673 53.278 34.6259C52.6198 36.2317 51.2757 37.4934 51.0218 39.2848C50.9315 39.9243 50.4349 40.4073 50.1309 40.9453C49.3567 42.3147 49.208 43.9081 48.5118 45.2423C47.8511 46.5081 47.5678 47.8944 46.8943 49.132C46.5364 49.7889 46.6623 50.607 46.1964 51.244C45.882 51.6731 45.1049 54.3443 45.0147 54.8584C44.7881 56.1531 44.5247 57.4417 44.2633 58.7303C44.2186 58.9515 44.1191 59.1789 43.818 59.1313C43.5074 59.0824 43.357 59.2236 43.4763 59.4995C43.9228 60.5333 43.3897 61.4595 42.9925 62.2713C41.8373 64.6306 40.8341 67.0557 39.8197 69.471C39.6189 69.9498 38.6857 69.8197 39.0183 70.7736C39.186 71.2553 38.6438 72.09 38.2686 72.7129C37.9032 73.321 37.6576 73.9994 37.3267 74.6298C34.8891 79.2768 32.6491 84.016 30.5267 88.8162C29.3496 91.4787 27.9446 94.0393 26.7045 96.6753C26.3913 97.3413 26.1863 98.0889 25.9759 98.8014C25.7825 99.4558 25.4987 100.394 24.6993 100.806C24.551 100.882 24.4587 100.949 24.4102 101.101C23.4327 104.18 20.8067 105.79 18.4648 107.593C16.7881 108.884 14.7432 109.646 12.8407 110.539C11.6636 111.09 10.5809 111.968 9.20944 112.162C7.83471 112.357 6.46909 112.605 5.0753 112.633C3.72335 112.661 2.47329 112.344 1.35371 111.567C0.767197 111.16 0.678144 110.643 0.93412 109.99C1.56826 108.37 2.52465 107.014 3.99755 106.051C4.56169 105.682 5.16477 105.362 5.54045 104.759C5.80844 104.328 6.2624 104.87 6.76027 104.381C8.52187 102.648 9.61909 100.541 10.749 98.4232C13.0893 94.0364 14.8314 89.3982 16.5089 84.7343C17.2346 82.7159 17.6123 80.6117 17.9425 78.496C18.1512 77.1602 18.2916 75.8236 18.3811 74.4766C18.4221 73.852 18.6735 73.3388 19.4402 73.719C19.8975 73.946 20.0383 73.6134 20.2529 73.3781C20.4053 73.2108 20.3742 73.0194 20.2276 72.8786C19.96 72.6226 19.7277 72.8894 19.5185 72.9912C18.6603 73.4088 18.3799 73.1598 18.4234 72.2213C18.5443 69.635 18.6097 67.0479 17.9379 64.5055C17.6036 63.2385 17.1344 62.0228 16.5226 60.8746C14.7345 57.5167 12.4249 54.4901 10.3825 51.2929C8.88844 48.9527 7.35175 46.6128 7.03779 43.7565C6.96448 43.0917 6.43678 42.2815 7.35631 41.7418C7.40726 41.7124 7.45199 41.618 7.44785 41.5575C7.26974 38.9447 7.35051 38.8793 9.12619 37.0481C10.2785 35.8598 11.6839 35.033 13.1158 34.3749C18.3844 31.9522 22.8242 28.4273 27.1705 24.6552C32.461 20.063 37.2811 14.9393 42.7776 10.6072C48.7992 5.86208 55.687 2.6106 62.998 0.364387C66.8571 -0.821057 69.7164 2.05888 68.8751 6.0638C68.0351 10.0625 66.5187 13.8052 64.5045 17.3661C62.192 21.4534 59.5423 25.3258 56.9784 29.2491C56.2751 30.3256 55.6787 31.4933 54.8209 32.4865C54.376 33.0014 54.0459 33.4537 53.2825 32.8601Z" fill="#F9896B"/>
</svg>
