<svg width="17" height="26" viewBox="0 0 17 26" fill="none" xmlns="http://www.w3.org/2000/svg">
<path fill-rule="evenodd" clip-rule="evenodd" d="M2.00184 22.297C5.74986 14.7958 10.3443 7.84206 15.1999 1.07428C15.7548 1.2169 15.2673 1.56251 15.4652 1.78069C15.7797 1.9259 16.1297 1.168 16.5342 1.84218C16.9061 2.46155 16.6857 2.92718 16.4238 3.40763C15.0455 5.93656 13.0548 8.07246 11.8535 10.7396C11.4423 11.6516 11.2626 12.7684 10.2487 13.4789C9.62457 13.916 9.77163 15.0214 9.22006 15.7493C8.87482 16.2053 8.68294 16.8432 8.2988 17.3577C6.76818 19.4062 5.88618 21.7232 5.63466 24.2699C5.58947 24.7285 5.39832 25.1438 4.97307 25.1579C3.81362 25.1968 2.66195 25.6772 1.52547 24.6626C0.700517 23.9258 0.623838 23.2587 0.857209 22.3704C1.41989 20.2304 2.536 18.3419 3.63137 16.4549C4.91269 14.2479 6.36774 12.145 7.725 9.98685C9.55049 7.08415 11.5942 4.34296 13.5326 1.5251C13.7171 1.25727 13.8938 0.70348 14.2983 0.947223C14.6028 1.13059 14.282 1.56918 14.1083 1.83589C13.0125 3.51764 11.8394 5.14235 10.6377 6.75299C9.48603 8.29658 8.52069 9.98759 7.55905 11.6627C6.00509 14.3705 4.29296 16.9876 2.8868 19.7799C2.48599 20.576 2.08926 21.3824 2.00184 22.297Z" fill="black"/>
</svg>
