<svg width="12" height="24" viewBox="0 0 12 24" fill="none" xmlns="http://www.w3.org/2000/svg">
<path fill-rule="evenodd" clip-rule="evenodd" d="M9.23178 7.17826C9.18622 6.60252 9.27859 5.94187 8.69167 5.654C8.14492 5.38601 7.70711 5.87187 7.29912 6.18459C6.72794 6.62282 6.25906 7.17122 5.87841 7.77844C4.36492 10.1936 3.36752 12.8044 2.93013 15.6292C2.81954 16.3458 2.80504 17.2338 3.51001 17.3689C4.25474 17.5113 5.3238 17.6853 5.77942 16.5703C5.90616 16.2596 6.0648 15.9502 6.26652 15.6835C8.16894 13.1602 8.60593 10.1381 9.23178 7.17826ZM0.00918102 16.149C0.256459 12.2535 1.40462 8.33388 3.51208 4.69761C3.77551 4.24406 4.09486 3.82323 4.35912 3.3701C5.42817 1.53808 7.11563 0.813646 9.13528 0.763943C9.83279 0.74696 10.2217 1.2995 10.5365 1.88104C11.6756 3.9856 11.9659 6.23223 11.5008 8.54098C10.5788 13.1154 8.86356 17.3792 6.27687 21.281C5.81462 21.9789 5.22066 22.5513 4.6122 23.0993C3.92462 23.7181 3.33936 23.4841 3.10658 22.5745C3.02705 22.2626 3.04983 21.9006 2.61492 21.7813C0.880246 21.305 0.648707 19.7344 0.218352 18.3551C0.0332041 17.7603 0.0891218 17.0905 0.00918102 16.149Z" fill="black"/>
</svg>
