<svg width="13" height="22" viewBox="0 0 13 22" fill="none" xmlns="http://www.w3.org/2000/svg">
<path fill-rule="evenodd" clip-rule="evenodd" d="M10.4747 0.728271C10.3091 1.10167 10.2025 1.34171 10.0995 1.5736C10.2217 1.73325 10.3347 1.63805 10.4562 1.60397C10.7055 1.53359 10.7911 1.0561 11.093 1.24687C11.4582 1.47765 10.9885 1.754 11.0167 2.02737C11.4164 2.12035 11.5227 1.62657 11.8486 1.61286C12.3539 2.39003 12.0887 3.01568 11.6182 3.71283C10.3399 5.60722 9.23192 7.59829 8.48587 9.77716C8.20435 10.5999 7.15047 11.0018 7.1301 11.9568C7.10417 13.1681 6.53889 14.2197 5.9036 15.0858C4.80638 16.5816 4.5719 18.3415 3.91883 19.9673C3.7351 20.4248 3.98699 20.9883 3.53506 21.3631C3.38911 21.4843 3.15982 21.7602 3.06462 21.5276C2.7379 20.7327 2.10113 21.1157 1.574 20.9838C0.595694 20.739 0.40307 19.7795 0.307498 18.9357C0.157103 17.6059 0.54087 16.3197 1.08059 15.1343C3.14611 10.5954 5.54836 6.24103 8.52032 2.22444C8.97299 1.61249 9.37898 0.844587 10.4747 0.728271Z" fill="black"/>
</svg>
