<svg width="9" height="13" viewBox="0 0 9 13" fill="none" xmlns="http://www.w3.org/2000/svg">
<path fill-rule="evenodd" clip-rule="evenodd" d="M1.58167 9.67712C1.35221 10.3092 1.5299 10.88 1.73203 11.4279C1.83848 11.7162 1.91883 11.9349 1.57339 12.0546C1.25818 12.164 1.06434 11.9424 0.952503 11.7017C0.667119 11.0887 0.737947 10.4053 0.907355 9.82085C1.5531 7.58996 2.76381 5.65357 4.257 3.88783C4.7002 3.36428 5.2254 2.89002 5.5725 2.30889C6.20333 1.25268 7.27694 0.951557 8.30043 0.617711C8.77842 0.461557 8.86996 1.10274 8.96812 1.44777C9.02404 1.64534 8.87866 2.02848 8.70262 2.14363C7.0015 3.25617 6.72771 5.32925 5.57375 6.81996C5.19351 7.3112 5.36789 8.30736 4.87665 8.95931C4.48854 9.47458 4.27937 10.1187 3.55783 10.3643C3.14156 10.5055 3.45676 11.0415 3.26872 11.36C3.17221 11.5236 3.11298 11.7204 2.90753 11.7469C2.70292 11.7734 2.44487 11.5986 2.48173 11.4677C2.72984 10.5884 1.69144 10.3643 1.58167 9.67712Z" fill="black"/>
</svg>
