<svg width="48" height="143" viewBox="0 0 48 143" fill="none" xmlns="http://www.w3.org/2000/svg">
<path fill-rule="evenodd" clip-rule="evenodd" d="M38.0575 28.4705C40.4876 27.0444 42.458 25.0902 44.3024 22.9927C42.2285 24.828 40.1898 26.7027 38.0575 28.4705ZM52.1047 16.2654C52.0239 16.1792 51.9431 16.0931 51.8624 16.0069C49.733 17.9524 47.4263 19.6995 45.5773 21.959L52.1047 16.2654ZM3.1523 119.353C1.90431 120.592 1.33603 124.434 2.1549 125.225C2.38851 123.28 2.39472 121.261 3.1523 119.353ZM12.5998 41.9585C9.67186 43.9429 7.05867 46.2194 5.7937 49.6838C7.80713 46.8825 10.019 44.2614 12.5998 41.9585ZM56.103 12.736C60.9984 8.90129 66.132 5.49738 71.8761 3.08176C68.1131 3.58004 57.6753 10.4777 56.103 12.736ZM54.3811 104.197C53.2114 106.533 52.4866 109.036 51.7977 111.532C51.0932 114.085 50.1422 116.55 49.3171 119.056C48.5372 121.425 47.4101 123.681 46.4359 125.986C50.6053 119.262 52.1602 111.614 54.3811 104.197ZM12.4967 66.6931C12.5161 66.5494 12.4843 66.3423 12.5663 66.2756C12.7145 66.1547 12.7912 66.339 12.8898 66.4479C13.1689 66.7544 13.0385 67.2171 13.4212 67.524C14.1274 68.0894 14.6132 68.801 14.9649 69.6998C15.2648 70.4661 16.0832 71.0232 16.6412 71.6983C16.7658 71.8487 16.922 72.103 16.7613 72.3167C16.4627 72.7131 16.7021 72.8432 17.0309 72.9364C17.4373 73.0507 17.6522 73.358 17.7902 73.7122C18.288 74.9879 18.9508 76.1995 19.099 77.6048C19.1947 78.5115 19.3409 79.5951 19.6769 80.2565C20.6121 82.0997 20.6461 84.0432 20.5574 85.8893C20.4771 87.561 20.1557 89.2733 20.2327 90.9479C20.299 92.3947 19.5712 93.574 19.3687 94.9213C19.1235 96.5525 17.9927 97.9761 17.7699 99.6714C17.6324 100.713 16.5331 101.504 16.5426 102.328C16.5641 104.235 14.8754 105.261 14.5772 106.98C14.4824 107.527 14.2583 108.346 13.7828 108.866C12.8057 109.934 12.5199 111.412 11.508 112.476C10.2339 113.815 9.57242 115.609 8.21384 116.938C7.39786 117.737 6.75999 118.768 6.04591 119.687C5.39893 120.519 5.45691 121.809 5.24319 122.909C4.93336 124.5 5.84668 125.74 6.25881 127.138C7.24378 130.479 9.29656 133.241 11.6998 135.47C16.3931 139.822 22.0142 141.252 28.2641 138.974C28.8986 138.743 29.5324 138.51 30.1723 138.295C33.925 137.035 37.1669 134.953 40.1782 132.397C44.1189 129.052 45.9848 124.387 48.1681 119.971C48.9319 118.427 49.2289 116.534 49.8054 114.819C50.2002 113.645 50.6251 112.473 50.8969 111.268C51.1706 110.053 51.5438 108.873 51.9075 107.689C52.2703 106.507 52.7815 105.365 53.0689 104.167C53.3249 103.101 53.8489 102.15 54.0696 101.045C54.3645 99.5691 54.8463 98.0987 55.2472 96.6254C56.6886 91.3269 57.7668 85.9589 58.4163 80.503C58.7762 77.4793 59.0384 74.4271 59.6647 71.4548C61.6876 61.8482 66.1113 53.3604 72.2042 45.7321C74.9276 42.3228 77.8166 39.0448 80.6676 35.739C84.7499 31.006 86.9651 25.3724 88.6339 19.4626C89.6719 15.7882 89.4921 12.1581 88.1435 8.61217C87.3743 6.59129 86.2286 4.90383 83.8114 4.50495C81.5606 4.13342 79.3645 4.66649 77.2363 5.05998C75.9709 5.29442 74.5925 5.89626 73.3225 6.51052C70.2761 7.98466 67.1861 9.37679 64.5373 11.5224C63.9065 12.0326 63.1212 12.101 62.4908 12.6109C61.6839 13.2632 61.1202 14.1442 60.24 14.7303C59.7347 15.0663 59.1291 15.099 58.6631 15.5297C55.7082 18.2593 52.3681 20.5553 49.7011 23.6154C48.7753 24.6782 47.6317 25.5484 46.6231 26.5425C42.8361 30.2732 38.429 33.0645 33.4644 34.8883C27.3781 37.1241 21.6982 40.1213 16.3848 43.7832C14.3531 45.1832 12.1769 46.5037 10.7202 48.6323C9.87561 49.867 8.78958 51.1258 8.65786 52.5403C8.46236 54.6324 8.24946 56.8173 8.96188 58.9016C9.13378 59.4044 8.82727 60.1053 8.93413 60.2771C9.34626 60.937 9.59478 61.6834 10.0413 62.3163C11.0056 63.6844 12.3351 64.8537 12.4967 66.6931ZM11.341 107.041C11.6616 106.92 11.7411 106.599 11.8517 106.343C12.9046 103.905 14.0429 101.497 14.7474 98.9256C15.1596 97.4208 15.8827 95.9868 15.8591 94.3735C15.1314 97.227 13.8631 99.8878 12.9622 102.677C12.4842 104.157 11.59 105.488 11.3651 107.063C10.0781 108.76 9.44647 110.799 8.406 112.625C9.50653 110.827 10.8001 109.128 11.341 107.041ZM59.1105 100.258C59.0657 99.9833 59.1088 99.7393 58.835 99.6014C58.7866 100.024 58.4465 100.427 59.0057 100.798C59.3308 101.013 59.0251 101.362 58.9419 101.622C58.1926 103.962 57.464 106.311 56.7404 108.654C56.052 110.885 55.2298 113.085 54.7137 115.37C54.4548 116.517 53.8986 117.548 53.4773 118.63C53.2835 119.127 53.1203 119.602 53.1203 120.142C53.1199 121.24 53.0437 121.269 52.028 120.691C51.9431 120.643 51.8147 120.672 51.6776 120.664C51.6776 120.786 51.6399 120.907 51.683 120.979C52.3308 122.054 52.1937 123.344 51.4328 124.38C50.9308 125.063 50.474 125.754 50.2569 126.652C49.9309 128.004 49.0044 129.068 47.9283 129.957C47.8305 130.037 47.6081 130 47.5977 130.188C47.5373 131.302 46.6405 131.837 45.9641 132.5C45.3184 133.133 44.5223 133.596 43.9155 134.292C42.8771 135.483 41.709 136.469 40.2859 137.262C39.6289 137.628 38.9616 138.324 38.2302 138.61C35.5275 139.67 32.8774 140.855 30.14 141.843C25.5146 143.512 20.9609 143.022 16.3703 141.908C13.6697 141.253 11.2284 140.045 8.99668 138.386C8.14342 137.751 7.45295 136.979 6.75171 136.194C4.07224 133.2 2.19384 129.772 1.25029 125.875C0.645967 123.38 1.02703 120.94 2.27709 118.693C2.60597 118.102 2.85904 117.327 3.96869 117.461C4.45206 117.519 4.93171 116.62 5.30656 116.049C7.95703 112.015 10.1121 107.729 11.8476 103.226C13.6747 98.4872 15.2689 93.6982 15.8844 88.6106C16.3314 84.9176 15.8322 81.3757 14.9322 77.8119C14.2115 74.9577 12.722 72.5715 11.0213 70.2478C9.7468 68.5069 8.60691 66.6683 7.34857 64.915C6.90248 64.2937 7.46538 63.8973 7.59751 63.0983C6.90869 64.0348 6.79561 63.8467 6.50236 63.0763C6.2091 62.3063 5.67147 61.5873 5.24691 60.8409C4.33898 59.2429 3.81999 57.5008 3.80259 55.7056C3.79597 55.0247 3.44017 54.4564 3.53212 53.8119C3.64768 52.9992 3.70443 52.1658 3.93431 51.3842C4.34023 50.0021 4.59496 48.5449 5.94609 47.6063C6.31928 47.347 6.09768 46.5426 6.52183 46.0874C8.33685 44.1386 10.0458 42.0618 12.3157 40.6167C17.716 37.178 23.3724 34.2492 29.2975 31.7813C33.423 30.0628 37.3616 27.892 40.6131 24.6993C45.3979 20.0015 50.4309 15.5795 55.6088 11.3244C60.5175 7.29087 65.777 3.82939 71.8086 1.66353C74.3411 0.754363 76.9377 0.214659 79.6213 0.0295109C83.4518 -0.234749 86.3202 1.50862 88.5457 4.4043C92.8194 9.96578 93.8226 16.2248 92.1782 22.9555C91.0727 27.4824 89.4445 31.8232 87.1482 35.8865C86.07 37.7935 85.0428 39.7237 83.2646 41.1746C82.4163 41.8667 81.9619 43.0356 81.31 43.975C79.0803 47.1867 76.2754 49.9408 74.0561 53.1719C73.0678 54.6105 72.2324 56.1281 71.3008 57.5927C69.2679 60.7891 67.8799 64.3168 66.3515 67.7568C65.0103 70.7751 64.5253 74.0734 64.0419 77.3422C63.5217 80.8642 62.9708 84.3828 62.3711 87.8919C62.0248 89.919 61.7833 92.012 61.0622 93.9111C60.5614 95.2308 60.5428 96.6361 59.9434 97.9152C59.5992 98.6487 59.9691 99.6536 59.1105 100.258Z" fill="#F9896B"/>
</svg>
