<svg width="11" height="17" viewBox="0 0 11 17" fill="none" xmlns="http://www.w3.org/2000/svg">
<path fill-rule="evenodd" clip-rule="evenodd" d="M4.40167 7.01736C5.62336 5.64492 6.38348 3.97575 7.58812 2.61183C7.94299 2.21028 8.36825 1.86171 8.67163 1.42608C9.17245 0.706331 9.68772 1.25494 10.0189 1.48164C10.3404 1.70131 10.4912 2.21176 10.1463 2.6948C8.73794 4.66735 7.60516 6.82659 6.65389 9.02399C5.97601 10.5905 4.85064 11.9626 4.61578 13.7855C4.52651 14.4756 4.05495 15.272 3.79343 16.0448C3.44374 17.0779 2.72547 16.2226 2.17131 16.1848C2.08389 16.1789 2.00647 15.9218 1.92645 15.9233C1.58529 15.9281 1.38451 16.7967 0.984818 16.1941C0.442507 15.3761 -0.136476 14.6045 0.242845 13.3954C0.845536 11.4762 1.77124 9.74485 2.78437 8.04568C4.15793 5.74197 5.4248 3.35714 7.37957 1.45608C7.52367 1.31606 7.65591 1.16233 7.81001 1.03416C7.96892 0.901918 8.18266 0.788937 8.35306 0.951556C8.56976 1.15863 8.45493 1.40904 8.26527 1.56462C6.60759 2.92188 5.7819 4.87961 4.62023 6.59396C4.53207 6.72435 4.47391 6.87586 4.40167 7.01736Z" fill="black"/>
</svg>
