<svg width="13" height="18" viewBox="0 0 13 18" fill="none" xmlns="http://www.w3.org/2000/svg">
<path fill-rule="evenodd" clip-rule="evenodd" d="M5.50473 6.87251C6.87077 5.3379 7.72071 3.47151 9.06769 1.94642C9.46449 1.49743 9.94 1.10766 10.2792 0.620561C10.8392 -0.184231 11.4154 0.429201 11.7857 0.682692C12.1452 0.928313 12.3138 1.49908 11.9282 2.0392C10.3534 4.24482 9.08674 6.6592 8.02307 9.11624C7.26508 10.8679 6.00674 12.4021 5.74414 14.4404C5.64432 15.212 5.11704 16.1026 4.82461 16.9666C4.43361 18.1218 3.63047 17.1654 3.01082 17.1232C2.91307 17.1165 2.8265 16.8291 2.73704 16.8307C2.35556 16.8361 2.13106 17.8074 1.68414 17.1335C1.07775 16.219 0.430351 15.3562 0.854493 14.0042C1.5284 11.8583 2.56349 9.92228 3.69633 8.02234C5.23219 5.44642 6.64875 2.77979 8.83449 0.654112C8.99562 0.497544 9.14349 0.32565 9.31579 0.182337C9.49349 0.0344668 9.73248 -0.0918646 9.92301 0.0899698C10.1653 0.321508 10.0369 0.601508 9.82485 0.775473C7.9713 2.29311 7.04804 4.48216 5.74911 6.39908C5.65053 6.54488 5.5855 6.71429 5.50473 6.87251Z" fill="black"/>
</svg>
