<svg width="15" height="24" viewBox="0 0 15 24" fill="none" xmlns="http://www.w3.org/2000/svg">
<path fill-rule="evenodd" clip-rule="evenodd" d="M12.2785 0.312988C12.0933 0.730503 11.974 0.998905 11.8589 1.2582C11.9956 1.43672 12.1219 1.33027 12.2578 1.29216C12.5365 1.21346 12.6322 0.679556 12.9698 0.89287C13.3782 1.15092 12.853 1.45991 12.8845 1.76559C13.3314 1.86956 13.4503 1.31743 13.8147 1.3021C14.3797 2.17109 14.0832 2.87068 13.5571 3.65021C12.1277 5.76843 10.8888 7.99476 10.0546 10.4311C9.73984 11.351 8.56143 11.8004 8.53865 12.8683C8.50966 14.2227 7.87759 15.3986 7.16723 16.367C5.94037 18.0396 5.67818 20.0074 4.94794 21.8254C4.7425 22.3369 5.02416 22.9669 4.51883 23.3861C4.35564 23.5215 4.09925 23.8301 3.9928 23.57C3.62747 22.6811 2.91546 23.1094 2.32605 22.9619C1.23215 22.6881 1.01676 21.6154 0.909897 20.6718C0.741731 19.1848 1.17084 17.7467 1.77433 16.4213C4.08392 11.3461 6.77001 6.47713 10.0932 1.98595C10.5993 1.30169 11.0533 0.443047 12.2785 0.312988Z" fill="black"/>
</svg>
