<svg width="8" height="11" viewBox="0 0 8 11" fill="none" xmlns="http://www.w3.org/2000/svg">
<path fill-rule="evenodd" clip-rule="evenodd" d="M0.786667 8.39655C0.581448 8.96183 0.740363 9.47229 0.921133 9.96237C1.01633 10.2202 1.0882 10.4158 0.779258 10.5228C0.49736 10.6206 0.323998 10.4224 0.223982 10.2072C-0.0312451 9.65898 0.0320986 9.04777 0.183605 8.52509C0.761107 6.52995 1.84388 4.79819 3.17928 3.21904C3.57564 2.75082 4.04535 2.32667 4.35577 1.80696C4.91994 0.862358 5.88009 0.593055 6.79543 0.294487C7.22291 0.154835 7.30477 0.728262 7.39256 1.03683C7.44257 1.21353 7.31255 1.55618 7.15512 1.65916C5.63376 2.65413 5.3889 4.50814 4.35688 5.84132C4.01682 6.28065 4.17278 7.17154 3.73345 7.7546C3.38635 8.21541 3.19928 8.79143 2.55399 9.0111C2.18171 9.13742 2.46361 9.61676 2.29543 9.90162C2.20912 10.0479 2.15615 10.2239 1.97242 10.2476C1.78942 10.2713 1.55864 10.115 1.59161 9.99793C1.8135 9.2115 0.884831 9.0111 0.786667 8.39655Z" fill="black"/>
</svg>
