<svg width="16" height="24" viewBox="0 0 16 24" fill="none" xmlns="http://www.w3.org/2000/svg">
<path fill-rule="evenodd" clip-rule="evenodd" d="M1.30973 21.2204C1.29565 22.0661 2.00932 22.477 2.1079 23.1522C1.06494 23.2947 0.407601 22.7289 0.179376 21.5646C-0.0683166 20.2996 0.327245 19.1344 0.942748 18.1259C2.25245 15.9803 3.34553 13.7109 5.17506 11.8577C5.8908 11.1329 6.38577 9.95988 7.08204 9.08301C9.06648 6.58207 11.1379 4.14988 13.1841 1.69822C13.5949 1.20573 14.0825 0.791947 14.6449 0.470941C14.9328 0.306503 15.2165 0.269225 15.4845 0.48461C15.7724 0.716148 15.7405 1.01189 15.5798 1.29727C15.3408 1.72183 15.1262 2.16999 14.8276 2.54982C12.0628 6.06266 9.22304 9.51875 6.53612 13.0896C5.48944 14.4809 4.67222 16.0797 4.1089 17.7498C3.84878 18.5214 4.12754 19.368 4.21577 20.1795C4.23938 20.4006 4.54796 20.7014 4.15695 20.867C3.406 21.186 2.77683 21.5012 3.43748 22.4795C3.58784 22.7019 3.24612 22.8196 3.00837 22.825C2.5834 22.8349 2.09423 22.8283 2.04411 22.3002C1.99855 21.8156 1.72393 21.5691 1.30973 21.2204Z" fill="black"/>
</svg>
