<svg width="10" height="22" viewBox="0 0 10 22" fill="none" xmlns="http://www.w3.org/2000/svg">
<path fill-rule="evenodd" clip-rule="evenodd" d="M6.70905 6.02757C5.78539 6.84852 5.46976 7.84136 4.97604 8.75012C4.06894 10.4218 3.65846 12.1971 3.4087 14.0395C3.36728 14.346 3.38426 14.674 3.74752 14.7821C4.10249 14.8878 4.28722 14.5924 4.44545 14.3563C4.58876 14.1418 4.59953 13.7508 4.77888 13.6638C5.38485 13.3689 4.97397 11.8802 6.27 12.4117C6.43568 12.4792 6.58976 12.1801 6.3926 12.0339C5.53189 11.3973 6.08071 10.6998 6.31556 10.0565C6.77574 8.79444 7.10627 7.53609 6.70905 6.02757ZM7.60456 0.971004C6.36858 1.54881 6.87556 2.14816 7.5913 2.42071C9.22698 3.0445 9.32929 4.55012 9.62917 5.85609C9.82095 6.69112 9.65941 7.66822 9.4403 8.52645C8.44911 12.4108 6.66391 15.951 4.51627 19.311C4.16296 19.8644 3.54083 20.2251 3.18669 20.8175C3.03343 21.073 2.73687 21.2383 2.40385 21.1256C2.07497 21.0142 1.97888 20.7818 2.01533 20.4206C2.08284 19.7472 1.78959 19.2389 1.2942 18.7514C-0.0701761 17.4102 0.0573978 15.608 0.20154 13.9628C0.568936 9.7616 1.9855 5.86769 4.27894 2.32834C4.97728 1.25018 5.95148 0.422602 7.60456 0.971004Z" fill="black"/>
</svg>
