<svg width="17" height="27" viewBox="0 0 17 27" fill="none" xmlns="http://www.w3.org/2000/svg">
<path fill-rule="evenodd" clip-rule="evenodd" d="M3.53786 18.9972C3.5362 19.9047 3.40242 20.5931 4.25153 20.8428C5.1404 21.1042 5.30816 20.4191 5.60389 19.8562C5.75011 19.5783 5.87561 19.1865 6.30886 19.2386C6.75745 19.2921 6.9049 19.628 6.9691 20.0335C7.00845 20.2816 6.9749 20.6113 7.28969 20.6975C7.65543 20.7973 7.8004 20.4709 7.98514 20.2406C9.54709 18.2951 10.7843 16.1491 11.7937 13.8785C12.4179 12.4735 12.9746 11.025 13.1419 9.47633C13.3735 7.33077 11.7482 6.13911 9.7662 6.98988C8.59484 7.49272 7.65295 8.30994 6.95543 9.35332C4.94946 12.3538 4.01046 15.7357 3.53786 18.9972ZM0.138924 19.8997C0.45703 14.3312 1.90673 9.10314 4.88608 4.34314C5.67514 3.08272 6.791 2.12882 7.99094 1.27846C8.73153 0.753256 9.58644 1.02663 10.3991 0.981895C10.6485 0.968227 11.3762 1.68065 11.2122 0.609943C11.2022 0.543257 11.6239 0.602072 11.8244 0.693611C13.154 1.30249 14.2487 2.14539 14.9156 3.51018C16.8184 7.40491 16.6146 11.2872 14.9176 15.1691C13.429 18.5738 11.5319 21.6874 8.69176 24.1763C7.25573 25.4347 5.46058 25.6973 3.75076 26.0672C2.30561 26.3799 0.849693 25.0134 0.474427 23.3865C0.210995 22.2445 0.167917 21.0777 0.138924 19.8997Z" fill="black"/>
</svg>
