<svg width="11" height="13" viewBox="0 0 11 13" fill="none" xmlns="http://www.w3.org/2000/svg">
<path fill-rule="evenodd" clip-rule="evenodd" d="M8.31331 3.53081C8.06976 3.35809 7.93307 3.32495 7.82662 3.58383C7.43893 4.52696 7.11585 5.50986 6.6097 6.3859C6.3036 6.91525 6.36946 8.00708 5.19727 7.68856C5.01088 7.63803 5.04899 7.87288 5.13348 8.00584C5.33106 8.31649 5.20846 8.5443 4.99431 8.80566C4.62899 9.25093 4.52834 9.74507 4.62319 10.3556C4.79922 11.4831 4.01473 12.0327 2.98337 11.57C2.85952 11.5141 2.63958 11.3261 2.6284 11.4039C2.36496 13.2413 1.36922 10.805 0.962893 11.6951C0.658041 11.4416 0.514728 11.119 0.479935 10.7205C0.400408 9.8072 0.774018 9.03472 1.19775 8.27631C2.80319 5.403 5.10283 3.10957 7.4613 0.877437C8.02917 0.33939 8.8849 0.310396 9.62094 0.0937688C10.053 -0.0333909 10.3077 0.324479 10.4713 0.666609C10.6954 1.13548 10.4485 1.18436 10.065 1.05927C10.014 1.90051 9.46396 2.48288 9.01248 3.12158C8.81366 3.40282 8.68485 3.74288 8.31331 3.53081Z" fill="black"/>
</svg>
