<svg width="17" height="23" viewBox="0 0 17 23" fill="none" xmlns="http://www.w3.org/2000/svg">
<path fill-rule="evenodd" clip-rule="evenodd" d="M14.7828 2.99578C14.7311 3.11714 14.6793 3.23808 14.6283 3.3582C13.1343 4.67495 11.929 6.26258 10.7593 7.84276C9.15011 10.0165 7.69502 12.3124 6.29378 14.6286C5.10792 16.589 3.59526 18.3506 2.76354 20.5343C2.42597 21.4207 1.86597 22.2296 0.888455 22.8348C0.658159 21.5002 1.5081 20.6453 1.9981 19.7047C3.28875 17.2257 4.91905 14.9542 6.52242 12.6744C9.4152 8.56181 12.1328 4.30962 15.738 0.74542C15.9443 0.541633 16.1091 0.261219 16.6053 0.412817C16.2814 1.49223 15.2459 2.05885 14.7828 2.99578Z" fill="black"/>
</svg>
