<svg width="16" height="26" viewBox="0 0 16 26" fill="none" xmlns="http://www.w3.org/2000/svg">
<path fill-rule="evenodd" clip-rule="evenodd" d="M5.36071 19.5113C5.69622 19.1779 5.71196 18.8295 5.77616 18.5015C5.84906 18.13 6.1158 17.92 6.41817 18.0989C7.16332 18.5409 7.52326 18.0078 7.93332 17.5886C9.04006 16.4582 10.0379 15.2119 10.7789 13.8359C11.5824 12.3448 12.4332 10.8048 12.2157 8.97487C12.0807 7.83706 11.9755 6.58742 10.7143 6.21091C9.42196 5.82529 8.44527 6.67067 7.59823 7.57363C7.54728 7.62789 7.51415 7.69831 7.4661 7.75588C5.61917 9.98635 4.7945 12.6907 4.13302 15.4136C3.77639 16.8828 4.17071 18.3636 5.36071 19.5113ZM0.475624 18.3362C0.555151 14.8304 1.71781 11.6241 3.0271 8.41984C3.93048 6.20842 5.13994 4.25298 6.68409 2.46612C8.03604 0.902506 10.8054 0.277891 12.7066 1.39458C13.4186 1.81292 13.5449 2.73825 14.3224 3.05304C13.4186 4.03511 14.783 4.44517 14.8641 5.19239C15.1951 8.22393 15.1007 11.1382 13.6779 13.9838C12.2853 16.7701 10.4633 19.1162 7.98385 20.9677C7.70799 21.1739 7.63592 21.4017 7.60527 21.7223C7.56261 22.1655 7.5042 22.6286 7.33562 23.0345C6.36681 25.3702 4.74604 25.7508 2.85521 24.0737C1.1429 22.5549 0.413494 20.6019 0.475624 18.3362Z" fill="black"/>
</svg>
