<svg width="9" height="20" viewBox="0 0 9 20" fill="none" xmlns="http://www.w3.org/2000/svg">
<path fill-rule="evenodd" clip-rule="evenodd" d="M6.99649 0.010149C7.8833 -0.0664787 8.53193 0.281452 8.57128 1.12808C8.64004 2.62376 8.97306 4.01796 8.53732 5.6553C7.80418 8.41015 6.67797 10.8887 5.12927 13.1929C4.44543 14.2098 4.72418 15.3401 4.29258 16.3566C3.93306 17.2032 3.50974 17.9757 2.84412 18.6086C2.41294 19.0187 1.95401 19.326 1.33933 18.9727C0.762348 18.6413 0.521283 18.2768 0.485248 17.4787C0.259922 12.4851 2.15034 8.03323 3.83406 3.51843C4.20685 2.52021 4.80164 1.66074 5.4217 0.80583C5.83797 0.232576 6.34122 -0.0590229 6.99649 0.010149Z" fill="black"/>
</svg>
