<svg width="61" height="171" viewBox="0 0 61 171" fill="none" xmlns="http://www.w3.org/2000/svg">
<path fill-rule="evenodd" clip-rule="evenodd" d="M4.45617 54.0449C4.38203 53.7674 4.24038 53.6179 3.97901 53.6684C3.52919 53.755 3.27736 54.0317 3.25168 54.4964C3.23759 54.7511 3.38754 54.8004 3.59961 54.7627C4.03535 54.6853 4.23748 54.3452 4.45617 54.0449ZM2.15529 135.872C2.59972 134.622 2.88759 133.333 3.2612 132.066C2.5289 133.227 2.13251 134.489 2.15529 135.872ZM5.44901 51.4533C7.30298 49.4543 9.23771 47.5345 11.2027 45.6445C8.81481 47.1186 6.97038 49.1267 5.44901 51.4533ZM41.9874 31.6694C45.815 29.938 48.9985 27.3443 52.0371 24.5492C48.8672 26.9309 45.7015 29.315 42.3175 31.3918C42.1965 31.4664 42.0971 31.5762 41.9874 31.6694ZM85.763 127.863C84.6504 131.664 82.4419 134.888 81.3302 138.577C82.7285 137.591 86.3391 129.101 85.763 127.863ZM40.8682 165.652C41.6146 165.652 42.368 165.717 43.1065 165.641C46.1327 165.33 49.1191 164.756 52.105 164.19C56.5353 163.351 60.6219 161.469 64.8144 159.924C66.7487 159.211 68.599 158.238 69.9095 156.522C74.2404 150.852 77.7271 144.747 80.2024 138.008C82.1781 132.631 84.7487 127.474 86.8603 122.143C88.368 118.337 89.3301 114.35 89.7613 110.258C90.1204 106.849 89.9187 103.43 89.9432 100.014C89.963 97.2051 89.9133 94.398 90.0902 91.5798C90.2145 89.595 89.7692 87.5273 89.599 85.494C89.2987 81.9136 89.3529 78.3776 90.441 74.9045C91.445 71.7002 92.8061 68.6492 94.4961 65.7668C97.9169 59.9307 102.205 54.7317 106.703 49.712C109.119 47.0163 111.489 44.2942 113.487 41.2726C117.163 35.7128 118.926 29.5723 118.774 22.9235C118.656 17.7257 116.379 13.6901 111.895 10.9481C104.1 6.18231 95.8708 4.65722 87.0367 7.55953C80.1949 9.8074 74.1033 13.3791 68.5306 17.9154C65.0551 20.7448 61.8819 23.9122 58.4158 26.7499C53.6952 30.6156 48.8991 34.3662 43.3393 36.9947C39.0366 39.0293 34.5139 40.4604 29.9652 41.8057C26.082 42.9543 22.3791 44.5046 18.8807 46.5396C14.8431 48.8881 11.4334 51.8927 9.07327 55.9863C8.79286 56.4738 8.78209 56.4676 8.14339 56.4808C7.94955 56.485 7.93753 56.6461 7.87251 56.7753C7.28185 57.9537 6.89623 59.1831 6.88049 60.5156C6.86972 61.4156 7.21724 62.703 6.90907 63.1362C5.91955 64.5263 6.66469 65.8728 6.84694 67.0442C7.07351 68.4972 7.45416 70.0049 7.89943 71.4608C9.01653 75.1157 10.3001 78.7052 12.1206 82.0627C13.7898 85.1427 15.4068 88.2501 15.8885 91.7385C16.0277 92.7495 17.2463 93.9039 15.9457 94.9837C15.9453 94.9841 16.0368 95.0848 16.0758 95.1449C16.7662 96.2089 17.115 97.4101 17.1676 98.644C17.2185 99.8228 17.6398 100.925 17.6903 102.09C17.7719 103.97 18.4694 105.798 18.0664 107.73C17.8833 108.608 17.926 109.541 17.9243 110.449C17.9206 112.471 17.2355 114.397 17.1295 116.424C17.0897 117.183 16.4266 118.148 16.0613 119.017C14.7516 122.134 12.4283 124.508 10.39 127.108C8.47227 129.554 6.31759 131.952 6.11588 135.305C6.03469 136.658 5.63209 138.085 6.33002 139.355C8.20759 142.767 9.19505 146.635 11.771 149.693C13.7757 152.074 15.1219 154.959 17.5644 157.027C19.9531 159.05 22.2337 161.228 24.9931 162.723C26.3475 163.456 27.721 164.207 29.3111 164.558C33.1317 165.401 36.9751 165.706 40.8682 165.652ZM72.4874 8.19962C72.6983 8.13583 72.9265 8.10394 73.1174 8.00246C77.887 5.46589 82.8578 3.45702 88.1298 2.22352C88.3203 2.17879 88.5816 2.18542 88.6947 1.89258C88.3381 1.94352 88.003 1.98329 87.6708 2.04086C83.2935 2.80216 79.236 4.47264 75.2949 6.45086C74.3141 6.94335 73.2405 7.32566 72.5073 8.22281C71.3322 8.30483 70.6148 9.29642 69.598 9.70441C69.4199 9.77565 69.2277 10.0996 69.4994 10.3746C69.5897 10.4657 69.7144 10.5245 69.7703 10.4173C70.3622 9.28855 71.7978 9.20033 72.4874 8.19962ZM59.1635 25.3689C60.5278 24.5202 61.6135 23.3609 62.697 22.2003C61.5302 23.2677 60.1203 24.0683 59.1854 25.3921C58.1893 25.745 57.5526 26.554 56.8414 27.2672C57.7452 26.7959 58.521 26.1646 59.1635 25.3689ZM89.2701 133.903C88.4781 136.07 87.7197 138.223 86.1168 140.007C85.1479 141.085 84.3755 142.382 83.7364 143.69C83.5048 144.164 83.0794 144.308 82.8371 144.732C82.2717 145.722 82.0642 146.841 81.3402 147.803C79.7082 149.972 78.0974 152.15 76.3938 154.268C75.2697 155.666 74.2176 157.134 73.0495 158.499C70.8729 161.041 68.0949 162.747 65.0111 163.961C61.4478 165.364 57.9179 166.886 54.2755 168.049C47.4875 170.217 40.5592 171.09 33.389 170.235C29.0693 169.72 24.8622 168.904 21.1601 166.698C15.2395 163.169 10.3585 158.47 6.91114 152.408C6.78191 152.181 6.61582 151.975 6.46049 151.763C5.05138 149.847 3.77937 147.867 3.13239 145.533C2.8118 144.378 2.33836 143.27 1.81564 142.181C0.265286 138.95 0.563097 135.697 1.81523 132.457C3.07564 129.195 5.18061 126.426 7.53369 123.971C10.6779 120.691 12.1533 116.886 12.623 112.489C13.06 108.399 12.3421 104.438 11.6136 100.462C11.1666 98.0227 10.7669 95.5731 10.2869 93.1401C9.51233 89.218 7.70807 85.7222 5.85535 82.2176C3.44345 77.6544 1.59984 72.8505 0.485227 67.7848C-0.447554 63.5459 0.0122095 59.3836 1.4557 55.3869C2.28742 53.0844 3.36848 50.8245 5.12055 48.9594C6.82623 47.1431 8.54724 45.3645 10.5814 43.914C15.4702 40.4268 20.8598 37.9805 26.5741 36.1999C33.0982 34.167 39.452 31.7617 45.0264 27.6665C49.1568 24.6321 53.0867 21.3574 56.8613 17.893C62.0011 13.1757 67.3845 8.78432 73.6058 5.53657C79.6366 2.38864 85.9353 -0.0617722 92.8289 0.0011864C103.205 0.0960385 112.088 3.76255 118.382 12.2967C123.036 18.6092 123.79 25.8424 122.269 33.3941C121.995 34.7576 121.717 36.1208 121.398 37.4744C120.58 40.9516 119.165 44.1488 117.088 47.0814C115.877 48.7904 114.572 50.4269 113.36 52.1176C111.938 54.1021 110.354 55.9204 108.716 57.6932C106.82 59.7464 105.14 61.9495 103.543 64.2305C102.987 65.025 102.105 65.5071 101.567 66.362C99.5332 69.5949 97.4182 72.7796 95.9661 76.3356C95.182 78.255 94.3826 80.1267 94.2281 82.2897C94.134 83.616 94.2148 84.9377 94.0993 86.2557C93.9261 88.2298 94.2666 90.1753 94.5806 92.1046C94.7011 92.8452 93.8031 93.4446 93.9965 93.4963C95.0432 93.7743 94.3072 94.3624 94.3287 94.7899C94.3411 95.0425 94.1808 95.3201 94.238 95.552C95.2097 99.4948 94.7897 103.522 94.8726 107.504C94.9496 111.201 95.2727 114.967 94.2732 118.591C93.9083 119.912 93.6424 121.269 93.2576 122.59C92.7958 124.174 91.9437 125.66 91.8017 127.313C91.6016 129.642 90.4249 131.593 89.5774 133.674C89.531 133.789 89.3591 133.852 89.244 133.943C89.3525 132.703 90.3677 131.779 90.4033 130.504C89.5335 132.353 88.4475 134.104 87.9968 136.142C88.4214 135.396 88.8455 134.65 89.2701 133.903Z" fill="#F9896B"/>
</svg>
