<svg width="17" height="20" viewBox="0 0 17 20" fill="none" xmlns="http://www.w3.org/2000/svg">
<path fill-rule="evenodd" clip-rule="evenodd" d="M3.31372 19.1048C0.653716 19.0994 -0.147764 17.9347 0.752296 15.7291C1.45602 14.0043 2.65306 12.5828 3.80869 11.1588C6.50638 7.83523 9.31425 4.60695 12.3035 1.53564C13.0346 0.784283 13.9222 0.515467 14.8335 0.236709C15.1516 0.139786 15.8607 -0.0515746 15.8338 0.225526C15.7774 0.792153 16.3461 1.30701 15.8342 1.9134C13.5478 4.62103 11.5074 7.51961 9.39336 10.361C8.46141 11.614 7.43005 12.7953 6.53247 14.0714C5.92567 14.9346 5.3052 15.8674 5.9207 17.0297C5.99443 17.1684 5.95632 17.5325 5.89088 17.554C4.84046 17.9045 4.20549 19.0232 3.31372 19.1048Z" fill="black"/>
</svg>
