<svg width="19" height="28" viewBox="0 0 19 28" fill="none" xmlns="http://www.w3.org/2000/svg">
<path fill-rule="evenodd" clip-rule="evenodd" d="M2.25958 23.9401C6.45047 15.5526 11.5878 7.77718 17.0172 0.209725C17.6376 0.369192 17.0925 0.755642 17.3137 0.999606C17.6654 1.16197 18.0568 0.314518 18.5091 1.06836C18.925 1.76091 18.6785 2.28156 18.3857 2.81878C16.8444 5.64653 14.6185 8.03481 13.2753 11.0171C12.8155 12.0368 12.6146 13.2856 11.4809 14.0801C10.783 14.5688 10.9474 15.8048 10.3307 16.6187C9.94467 17.1286 9.73011 17.8419 9.30058 18.4172C7.58911 20.7077 6.60289 23.2985 6.32165 26.1462C6.27112 26.659 6.05739 27.1233 5.58189 27.139C4.28544 27.1825 2.99769 27.7197 1.72692 26.5852C0.80449 25.7614 0.718751 25.0154 0.979697 24.0222C1.60887 21.6293 2.85686 19.5177 4.08165 17.4078C5.51437 14.94 7.14135 12.5885 8.65899 10.1754C10.7002 6.92972 12.9853 3.86464 15.1528 0.713808C15.3591 0.41434 15.5567 -0.204891 16.009 0.0676538C16.3495 0.272683 15.9908 0.763098 15.7965 1.06132C14.5713 2.9418 13.2595 4.75848 11.9159 6.55943C10.6281 8.28541 9.54869 10.1762 8.47343 12.0493C6.73585 15.0771 4.82141 18.0034 3.24911 21.1256C2.80094 22.0158 2.35733 22.9175 2.25958 23.9401Z" fill="black"/>
</svg>
