<svg width="15" height="21" viewBox="0 0 15 21" fill="none" xmlns="http://www.w3.org/2000/svg">
<path fill-rule="evenodd" clip-rule="evenodd" d="M1.25804 18.9801C1.24544 19.7366 1.8837 20.104 1.97186 20.7078C1.03911 20.8353 0.451238 20.3292 0.247131 19.288C0.025613 18.1567 0.379375 17.1146 0.929835 16.2126C2.10114 14.2938 3.07871 12.2642 4.7149 10.6069C5.355 9.95866 5.79767 8.9096 6.42036 8.1254C8.1951 5.88873 10.0476 3.71356 11.8776 1.52098C12.245 1.08054 12.681 0.710478 13.1841 0.423394C13.4415 0.276333 13.6953 0.242995 13.9349 0.435619C14.1924 0.64269 14.1639 0.907177 14.0201 1.1624C13.8064 1.5421 13.6145 1.9429 13.3474 2.28259C10.8748 5.42421 8.33512 8.51509 5.93214 11.7086C4.99606 12.9529 4.2652 14.3827 3.76141 15.8763C3.52878 16.5664 3.77808 17.3236 3.85698 18.0492C3.8781 18.2471 4.15407 18.516 3.80438 18.6642C3.13279 18.9494 2.5701 19.2313 3.16094 20.1062C3.29541 20.3052 2.9898 20.4104 2.77717 20.4152C2.39711 20.4241 1.95963 20.4181 1.91481 19.9459C1.87406 19.5124 1.62847 19.292 1.25804 18.9801Z" fill="black"/>
</svg>
