<svg width="15" height="21" viewBox="0 0 15 21" fill="none" xmlns="http://www.w3.org/2000/svg">
<path fill-rule="evenodd" clip-rule="evenodd" d="M12.5109 3.11206C12.4646 3.2206 12.4183 3.32876 12.3727 3.43619C11.0366 4.61379 9.95861 6.03365 8.91251 7.44684C7.47339 9.39087 6.17207 11.4442 4.9189 13.5156C3.85835 15.2689 2.50554 16.8443 1.76171 18.7972C1.45981 19.5899 0.95899 20.3134 0.0847731 20.8546C-0.121187 19.6611 0.638938 18.8965 1.07716 18.0552C2.23142 15.8382 3.68944 13.8068 5.12338 11.7679C7.71047 8.08991 10.1409 4.28707 13.3651 1.09951C13.5496 0.917256 13.697 0.666474 14.1408 0.802052C13.8511 1.7674 12.925 2.27414 12.5109 3.11206Z" fill="black"/>
</svg>
