<svg width="14" height="23" viewBox="0 0 14 23" fill="none" xmlns="http://www.w3.org/2000/svg">
<path fill-rule="evenodd" clip-rule="evenodd" d="M10.0701 14.9886C10.9167 12.218 10.8256 9.69961 9.53366 7.30015C8.57727 5.52364 7.29698 5.44163 5.99348 7.00938C5.04082 8.15506 4.47875 9.5095 4.03556 10.917C3.36994 13.0302 4.12709 14.4861 6.19313 15.2449C7.02402 15.5502 7.50408 15.3535 7.66313 14.5159C7.80064 13.7911 8.07195 13.1172 8.86928 13.1512C9.76065 13.1897 9.69313 14.0728 9.86544 14.7007C9.87455 14.7342 9.90727 14.762 10.0701 14.9886ZM13.4967 9.25269C13.5609 13.7029 12.3709 17.2812 10.0502 20.4945C9.54153 21.1999 8.96993 21.8572 8.2165 22.312C7.15863 22.9512 5.99183 22.6041 5.66834 21.4459C5.48692 20.7948 5.16881 20.6569 4.59928 20.5591C2.03538 20.1193 0.0923605 18.2525 0.0120058 15.6989C-0.154918 10.4075 1.49112 5.6276 5.10461 1.74778C7.7294 -1.07003 10.6073 -0.399437 12.2579 3.1221C13.237 5.21175 13.4947 7.44678 13.4967 9.25269Z" fill="black"/>
</svg>
