<svg width="12" height="17" viewBox="0 0 12 17" fill="none" xmlns="http://www.w3.org/2000/svg">
<path fill-rule="evenodd" clip-rule="evenodd" d="M5.0782 16.6692C4.37401 17.2352 3.86467 16.3543 3.64204 16.1754C3.03972 15.6916 2.09549 16.1906 1.86027 15.6179C1.50428 14.7507 0.736379 14.0169 1.05495 12.8552C1.67061 10.6082 2.60372 8.49302 3.47127 6.34785C4.10026 4.79278 4.69962 3.22252 5.61829 1.80081C6.02799 1.167 6.4988 0.608023 7.1941 0.289452C7.90718 -0.0376386 8.53321 -0.0609758 9.21999 0.526898C9.72822 0.961784 10.3835 1.24739 10.854 1.75858C11.3018 2.24459 11.6574 2.75319 11.1292 3.41552C10.7584 3.88004 10.8254 4.48903 10.6387 5.01874C9.88825 7.14724 9.60265 9.43947 8.39875 11.4076C7.50601 12.8674 6.84627 14.4384 6.15801 15.9972C5.96094 16.4436 5.77017 16.9829 5.0782 16.6692Z" fill="black"/>
</svg>
