<svg width="15" height="18" viewBox="0 0 15 18" fill="none" xmlns="http://www.w3.org/2000/svg">
<path fill-rule="evenodd" clip-rule="evenodd" d="M3.08392 17.8847C0.705013 17.8799 -0.0117713 16.8383 0.793175 14.8657C1.42254 13.3232 2.49308 12.0519 3.52659 10.7784C5.9392 7.80604 8.45036 4.9189 11.1238 2.17216C11.7776 1.5002 12.5714 1.25979 13.3863 1.01049C13.6708 0.923806 14.305 0.752666 14.2809 1.00048C14.2306 1.50723 14.7392 1.96768 14.2813 2.50999C12.2365 4.9315 10.4118 7.52377 8.52111 10.0649C7.68764 11.1855 6.76526 12.242 5.96254 13.3833C5.41986 14.1552 4.86495 14.9894 5.41541 16.0289C5.48135 16.153 5.44727 16.4786 5.38874 16.4978C4.44933 16.8112 3.88146 17.8118 3.08392 17.8847Z" fill="black"/>
</svg>
