<svg width="12" height="20" viewBox="0 0 12 20" fill="none" xmlns="http://www.w3.org/2000/svg">
<path fill-rule="evenodd" clip-rule="evenodd" d="M4.63558 19.1375C3.84818 19.7704 3.27865 18.7855 3.02972 18.5854C2.35623 18.0445 1.30043 18.6024 1.03741 17.962C0.639363 16.9924 -0.219276 16.1719 0.136937 14.8729C0.825339 12.3604 1.86871 9.99529 2.83877 7.59665C3.54208 5.85783 4.21226 4.10203 5.23948 2.51233C5.69759 1.80363 6.22404 1.1786 7.00149 0.822388C7.79883 0.456648 8.49883 0.430553 9.26676 1.08789C9.83504 1.57416 10.5678 1.89351 11.0938 2.46511C11.5946 3.00854 11.9922 3.57724 11.4016 4.31783C10.9869 4.83724 11.0619 5.51819 10.8531 6.11049C10.014 8.49049 9.69463 11.0536 8.34848 13.2542C7.35025 14.8866 6.61256 16.6432 5.84297 18.3862C5.62262 18.8853 5.4093 19.4884 4.63558 19.1375Z" fill="black"/>
</svg>
