<svg width="18" height="24" viewBox="0 0 18 24" fill="none" xmlns="http://www.w3.org/2000/svg">
<path fill-rule="evenodd" clip-rule="evenodd" d="M13.7828 2.99568C14.3544 2.45639 14.9998 1.97509 15.4782 1.36332C16.0365 0.649647 16.6582 0.493079 17.4448 0.804144C17.9124 0.989706 17.813 1.48012 17.7679 1.79284C17.6515 2.59764 17.1752 3.21769 16.3973 3.50432C16.2113 3.57266 15.9313 3.43184 15.9317 3.76817C15.9359 5.4113 14.4949 6.2861 13.8756 7.60243C13.6855 8.00586 13.3314 8.389 13.082 8.80278C12.3539 10.011 11.7582 11.3236 10.2149 11.7863C9.85539 11.894 9.28545 12.2158 9.47971 12.7621C10.0724 14.4285 8.90521 15.5414 8.2429 16.777C7.15438 18.807 5.77344 20.6717 4.76403 22.7514C4.65012 22.9859 4.57971 23.3193 4.25249 23.2381C3.84367 23.1362 4.38545 22.7734 4.10172 22.5596C3.59225 22.8309 3.14492 23.5637 2.43456 22.6992C2.18107 22.3907 1.8087 22.9121 1.62646 23.2398C1.4877 23.4887 1.33527 23.7231 1.02255 23.5401C0.644384 23.3185 0.97036 23.0869 1.07018 22.8836C2.88935 19.176 5.1364 15.7282 7.46835 12.3318C9.52196 9.34042 11.5752 6.34864 13.6283 3.35811C13.6793 3.23799 13.7311 3.11704 13.7828 2.99568Z" fill="black"/>
</svg>
