<svg width="17" height="21" viewBox="0 0 17 21" fill="none" xmlns="http://www.w3.org/2000/svg">
<path fill-rule="evenodd" clip-rule="evenodd" d="M12.5113 2.11204C13.0225 1.62974 13.5996 1.1993 14.0275 0.652172C14.5268 0.0139197 15.0828 -0.126103 15.7863 0.15209C16.2045 0.318044 16.1156 0.756634 16.0752 1.03631C15.9711 1.75606 15.5451 2.31059 14.8494 2.56693C14.6831 2.62805 14.4327 2.5021 14.4331 2.80289C14.4368 4.27239 13.148 5.05475 12.5943 6.23198C12.4242 6.59277 12.1075 6.93542 11.8845 7.30548C11.2333 8.38603 10.7006 9.55993 9.32038 9.9737C8.99885 10.07 8.48914 10.3578 8.66287 10.8464C9.19296 12.3367 8.14908 13.332 7.55676 14.437C6.58327 16.2525 5.34825 17.9202 4.44551 19.7801C4.34364 19.9898 4.28067 20.288 3.98803 20.2154C3.62241 20.1242 4.10694 19.7998 3.85319 19.6086C3.39756 19.8512 2.9975 20.5065 2.36221 19.7334C2.1355 19.4575 1.80249 19.9238 1.6395 20.2169C1.5154 20.4395 1.37908 20.6492 1.09941 20.4854C0.761204 20.2872 1.05273 20.0802 1.14201 19.8983C2.76894 16.5826 4.77853 13.4991 6.86406 10.4616C8.70065 7.7863 10.5369 5.11068 12.3731 2.43617C12.4187 2.32874 12.465 2.22058 12.5113 2.11204Z" fill="black"/>
</svg>
