<svg width="12" height="18" viewBox="0 0 12 18" fill="none" xmlns="http://www.w3.org/2000/svg">
<path fill-rule="evenodd" clip-rule="evenodd" d="M7.16264 9.22767C7.25086 9.53418 7.33909 9.8411 7.46749 10.2884C8.44997 9.04459 9.11145 7.75519 9.5124 6.35146C9.7779 5.42158 9.05305 4.6172 8.08133 4.66856C7.10216 4.71992 6.37772 5.26335 5.85293 6.03542C4.46867 8.07246 3.85193 10.4206 3.49654 12.7939C3.39092 13.5014 3.47542 14.4586 3.9153 15.2394C4.29554 15.9133 3.52636 17.6119 2.73234 17.8675C1.73826 18.1877 1.26648 17.469 0.92808 16.7442C0.260801 15.3164 0.493998 13.7669 0.630684 12.2973C0.940506 8.97418 1.94039 5.83288 3.65559 2.94672C4.41897 1.66187 5.295 0.480986 6.92116 0.247375C9.69175 -0.149843 10.8279 0.14134 11.5478 2.92477C12.4967 6.59252 10.4849 11.681 7.35773 13.8808C7.01145 14.1248 6.66145 14.3306 6.21122 14.1563C5.69761 13.9578 5.77216 13.4861 5.75477 13.1C5.69015 11.6628 6.33382 10.4376 6.87849 9.18667C6.97335 9.20033 7.06778 9.214 7.16264 9.22767Z" fill="black"/>
</svg>
