<svg width="11" height="20" viewBox="0 0 11 20" fill="none" xmlns="http://www.w3.org/2000/svg">
<path fill-rule="evenodd" clip-rule="evenodd" d="M8.18926 0.478027C7.35727 2.5254 5.99705 4.09232 5.20433 5.94633C4.40308 7.82034 3.43293 9.62693 2.92988 11.6273C3.65926 10.0237 4.38456 8.41785 5.11876 6.8161C5.96186 4.97839 7.03092 3.27108 8.08184 1.54783C8.60933 0.683246 9.20165 0.727327 9.79545 1.20333C10.3752 1.66859 10.4956 2.45205 9.94955 2.99807C8.83714 4.11047 8.21149 5.53182 7.80512 6.92797C7.0976 9.35948 5.85369 11.6132 5.47882 14.1525C5.39251 14.7378 4.9691 15.2367 4.88205 15.8887C4.78426 16.6222 4.7461 17.2504 5.10987 17.9338C5.32064 18.331 5.84073 18.8533 5.3788 19.2963C5.00096 19.6589 4.44754 19.9249 3.8178 19.5945C3.57739 19.4685 3.22697 19.5512 2.92655 19.5408C1.16996 19.4815 0.133126 18.3369 0.395021 16.5651C0.74619 14.1892 1.63856 11.9669 2.58093 9.77251C3.81558 6.89686 5.15802 4.07676 6.98536 1.5156C7.25503 1.13776 7.481 0.720289 8.18926 0.478027Z" fill="black"/>
</svg>
