<svg width="13" height="13" viewBox="0 0 13 13" fill="none" xmlns="http://www.w3.org/2000/svg">
<path fill-rule="evenodd" clip-rule="evenodd" d="M1.66694 9.83604C2.92611 7.88764 4.19481 5.94172 5.59605 4.08445C3.99765 5.28314 2.07078 8.06492 1.66694 9.83604ZM4.13103 12.7937C3.7392 12.9081 4.73825 11.5462 3.67044 12.3824C3.64186 12.4048 3.58553 12.4392 3.57269 12.4292C2.86896 11.8829 2.24931 11.9136 1.60523 12.5813C1.43624 12.7565 0.124876 11.2869 0.0967101 10.8528C0.0544616 10.1975 0.220142 9.57705 0.508426 9.00338C2.13541 5.7635 4.42428 3.0716 7.31624 0.893321C8.7328 -0.174075 10.219 -0.0576849 11.7022 0.737167C12.4987 1.16421 12.495 1.6774 11.8327 2.31652C11.1356 2.98877 10.4724 3.70161 9.84825 4.4422C9.12795 5.29669 8.52488 6.23486 7.73209 7.04794C6.69079 8.11533 6.33209 9.62924 5.57493 10.8967C5.15618 11.5963 4.78754 12.3062 4.13103 12.7937Z" fill="black"/>
</svg>
