<svg width="183" height="51" viewBox="0 0 183 51" fill="none" xmlns="http://www.w3.org/2000/svg">
<path fill-rule="evenodd" clip-rule="evenodd" d="M33.8669 7.29679L49.3999 3.13446C43.4625 2.57003 38.399 4.01902 33.8669 7.29679ZM142.354 42.9109C135.3 42.3826 128.245 41.8536 121.189 41.3246C128.137 43.5813 135.195 44.092 142.354 42.9109ZM180.154 25.3036C182.497 29.0601 183.439 32.5647 179.703 35.7387C178.072 37.1241 174.393 37.4082 172.361 36.2785C173.278 38.1789 173.132 39.3961 170.924 40.2963C169.104 41.0377 167.717 42.7995 165.921 43.6535C158.678 47.1007 151.274 50.2482 143.051 50.06C140.943 50.0111 138.818 48.0138 136.881 50.4636C131.186 50.5612 125.482 50.6826 119.929 49.1059C118.602 48.7285 117.353 48.0747 116.075 47.5297C110.676 45.2247 105.273 42.9268 99.8962 40.569C99.5348 40.4101 99.4289 39.7366 99.1219 39.3716C98.8553 39.0527 98.4717 38.8304 98.1405 38.5641C96.5506 40.6476 95.3026 38.49 94.5097 37.8877C92.1224 36.0717 90.0749 33.8086 87.899 31.7154C87.6455 31.4727 87.4551 31.0403 87.169 30.9731C84.0363 30.2316 81.7244 28.6739 80.3313 25.5572C79.839 24.4582 78.0785 23.9267 77.2457 22.685C76.5759 22.6543 75.7577 22.8652 75.2598 22.5566C70.0605 19.3376 64.9125 16.0355 59.6725 12.7073C57.3879 13.5544 51.7369 11.8489 50.3218 9.58503C50.1155 10.2294 49.9657 10.694 49.9613 10.7086C48.498 10.7301 47.1247 10.4769 45.9146 10.8136C39.7426 12.5264 33.6811 14.3348 28.3807 18.3422C22.9492 22.4479 16.9324 25.7714 11.3667 29.7122C9.39481 31.1081 7.92066 33.2527 6.36461 35.1729C5.44734 36.3049 4.76224 36.7617 3.53538 35.5831C0.262389 32.4401 -0.346948 29.656 2.83741 26.2477C7.14003 21.6421 11.659 16.9942 16.8617 13.5337C23.2832 9.26318 30.3716 5.90514 37.414 2.68468C44.9747 -0.772994 52.5403 1.04587 59.8402 4.06023C67.8262 7.35558 74.9443 12.0057 81.3738 17.8105C89.1528 24.8344 98.1505 29.9468 107.728 34.1576C117.761 38.568 128.188 40.9163 139.13 40.4982C147.489 40.1797 155.637 38.7398 163.062 34.4747C168.452 31.3781 173.924 28.4242 179.368 25.4221C179.583 25.3032 179.885 25.3403 180.154 25.3036Z" fill="#F9896B"/>
</svg>
