<svg width="13" height="21" viewBox="0 0 13 21" fill="none" xmlns="http://www.w3.org/2000/svg">
<path fill-rule="evenodd" clip-rule="evenodd" d="M6.38449 10.081C6.30152 10.0195 6.21891 9.95797 6.1363 9.89648C5.65993 10.651 5.17911 11.4026 4.71422 12.1643C4.66014 12.2532 4.55419 12.4136 4.71496 12.5106C4.82683 12.578 5.01871 12.5973 5.05687 12.4558C5.29876 11.5538 6.14519 10.98 6.38449 10.081ZM2.87425 19.2403C2.57976 19.6659 2.78979 20.3934 1.86186 20.4519C1.19101 20.4945 1.31214 20.1704 1.31177 19.8252C0.735009 19.877 0.965788 20.5623 0.454963 20.6983C0.244559 19.7711 0.586466 18.8835 0.544978 17.9926C0.551276 17.9663 0.55535 17.9374 0.557943 17.9063C1.27436 17.2914 1.43957 16.3713 1.83667 15.5808C2.0004 15.254 2.05782 14.8644 2.25896 14.5684C3.87775 12.1869 5.195 9.61535 6.93862 7.30793C8.30514 5.49949 9.51534 3.57399 10.9748 1.83185C11.3104 1.43141 11.6072 0.992452 12.3273 0.572754C11.7716 1.57884 11.3486 2.34415 10.9259 3.10947C10.9363 3.07909 10.9456 3.04797 10.9537 3.01575C9.83983 3.89774 9.38605 5.25945 8.4322 6.27591C8.75817 6.55188 8.85597 6.26406 9.01266 6.23146C9.28085 6.17626 9.44644 6.34444 9.55016 6.57522C9.60128 6.6882 9.70314 6.85489 9.52274 6.9012C8.72261 7.10679 8.9145 7.7706 8.89116 8.29698C8.86523 8.87893 8.54888 9.19861 8.09399 9.45865C7.39314 9.85909 6.9764 10.427 7.0516 11.2749C6.92862 11.4568 6.806 11.639 6.68302 11.8209C5.91697 12.1965 4.82123 14.0261 4.89902 14.7992C4.46192 14.8218 4.28929 15.65 3.69438 15.1959C3.51806 14.7062 3.41804 14.4743 2.96019 15.084C2.38158 15.8538 2.47455 16.9021 1.77666 17.59C1.67294 17.6919 1.67998 17.8422 1.82222 17.9293C2.00707 18.0427 2.17858 17.9597 2.20673 17.7782C2.32971 16.9936 2.95611 16.442 3.14577 15.6956C3.22616 15.3807 3.31099 15.1051 3.72254 15.1674C3.97258 16.6213 2.85313 17.6144 2.46937 18.8557C2.41862 19.0202 1.80185 18.5772 2.02559 19.1306C2.1345 19.4007 2.54531 19.5347 2.87425 19.2403Z" fill="black"/>
</svg>
